<?xml version="1.0" encoding="UTF-8"?>
<svg width="2732" height="2732" viewBox="0 0 2732 2732" xmlns="http://www.w3.org/2000/svg">
  <defs>
    <radialGradient id="bg" cx="50%" cy="45%" r="60%">
      <stop offset="0%" stop-color="#2f4022"/>
      <stop offset="100%" stop-color="#10120f"/>
    </radialGradient>
    <linearGradient id="cup" x1="0" y1="0" x2="0" y2="1">
      <stop offset="0%" stop-color="#f7f1e3"/>
      <stop offset="100%" stop-color="#e1d9c2"/>
    </linearGradient>
    <linearGradient id="brew" x1="0" y1="0" x2="0" y2="1">
      <stop offset="0%" stop-color="#a5bf8a"/>
      <stop offset="100%" stop-color="#3a5029"/>
    </linearGradient>
    <linearGradient id="leaf" x1="0" y1="0" x2="1" y2="1">
      <stop offset="0%" stop-color="#a5bf8a"/>
      <stop offset="100%" stop-color="#476633"/>
    </linearGradient>
  </defs>

  <rect width="2732" height="2732" fill="url(#bg)"/>

  <g transform="translate(854,854) scale(1.0)">
    <g stroke="#cbd9b8" stroke-width="22" stroke-linecap="round" fill="none" opacity="0.9">
      <path d="M380 300 Q350 230 400 170"/>
      <path d="M500 290 Q470 210 520 150"/>
      <path d="M620 300 Q590 230 640 170"/>
    </g>
    <path d="M230 430 H794 L760 740 Q758 820 660 820 H364 Q266 820 264 740 Z"
      fill="url(#cup)" stroke="#2f4022" stroke-width="14"/>
    <path d="M794 480 Q910 480 910 600 Q910 710 794 730"
      fill="none" stroke="#2f4022" stroke-width="14" stroke-linecap="round"/>
    <ellipse cx="512" cy="455" rx="260" ry="48" fill="url(#brew)"/>
    <path d="M512 410 C560 340 640 310 600 220 C690 260 720 360 640 420 Z"
      fill="url(#leaf)" stroke="#2f4022" stroke-width="8" stroke-linejoin="round"/>
  </g>
</svg>
