<svg width="96" height="96" viewBox="0 0 96 96" xmlns="http://www.w3.org/2000/svg">
  <defs>
    <linearGradient id="cupGrad" x1="0" y1="0" x2="0" y2="1">
      <stop offset="0%" stop-color="#f7f1e3" />
      <stop offset="100%" stop-color="#e1d9c2" />
    </linearGradient>
    <linearGradient id="brewGrad" x1="0" y1="0" x2="0" y2="1">
      <stop offset="0%" stop-color="#7fa263" />
      <stop offset="100%" stop-color="#3a5029" />
    </linearGradient>
  </defs>
  <rect width="96" height="96" rx="22" fill="#10120f" />
  <path d="M20 40 H76 L72 70 Q72 80 60 80 H36 Q24 80 24 70 Z"
    fill="url(#cupGrad)" stroke="#3a5029" stroke-width="2.5" />
  <path d="M76 46 Q88 46 88 58 Q88 68 76 70"
    fill="none" stroke="#3a5029" stroke-width="2.5" stroke-linecap="round" />
  <ellipse cx="48" cy="46" rx="26" ry="6" fill="url(#brewGrad)" />
  <path d="M48 38 C52 30, 58 26, 54 18 C62 22, 64 30, 58 36"
    fill="#7fa263" stroke="#3a5029" stroke-width="1.5" stroke-linejoin="round" />
  <path d="M40 32 Q38 26 42 20 M48 30 Q46 24 50 18 M56 32 Q54 26 58 20"
    stroke="#cbd9b8" stroke-width="2.2" stroke-linecap="round" fill="none" opacity="0.85" />
</svg>
